<svg xmlns="http://www.w3.org/2000/svg" version="1.1" xmlns:xlink="http://www.w3.org/1999/xlink" width="512" height="512" x="0" y="0" viewBox="0 0 512 512" style="enable-background:new 0 0 512 512" xml:space="preserve" class="">
<g transform="matrix(0.770000000000001,0,0,0.770000000000001,111.27754943847637,58.87999999999974)">
<linearGradient id="a" x1="244.685" x2="244.685" y1="0" y2="512" gradientUnits="userSpaceOnUse">
<stop offset="0" stop-color="#2af598"></stop>
<stop offset="1" stop-color="#047DFE"></stop>
</linearGradient>
<path fill="url(#a)" d="M336.082 415.098h40.008v36.886c0 33.094-26.922 60.016-60.016 60.016H60.016C26.922 512 0 485.078 0 451.984V59.891C0 26.8 26.922 0 60.016 0h256.058c33.094 0 60.016 26.8 60.016 59.89v37.133h-40.008V59.891c0-11.028-8.977-20.004-20.008-20.004H60.016c-11.032 0-20.008 8.976-20.008 20.004v392.093c0 11.032 8.976 20.13 20.008 20.13h256.058c11.031 0 20.008-9.098 20.008-20.13zM228.055 80.02h-80.02v40.007h80.02zm-60.016 332.078c0 11.05 8.957 20.004 20.004 20.004 11.05 0 20.008-8.954 20.008-20.004 0-11.047-8.957-20.004-20.008-20.004-11.047 0-20.004 8.957-20.004 20.004zM337.082 299.07h40.008v-40.008h-40.008zm125.324-11.172-7.297-5.832v43.832c0 27.575-22.43 49.192-50.004 49.192h-97.023c-27.578 0-50.012-22.438-50.012-50.012v-43.832l-7.293 6.652-26.965-29.558 132.782-121.133L489.37 258.34zm-47.3-43.148-58.512-53.383-57.524 53.38v80.331c0 5.516 3.496 10 9.012 10h97.023c5.512 0 10-4.484 10-10zm0 0" opacity="1" data-original="url(#a)" class=""></path>
</g>
</svg>
